<svg version="1.1" xmlns="http://www.w3.org/2000/svg" xmlns:xlink="http://www.w3.org/1999/xlink" width="438" height="416"><g fill="none" fill-rule="nonzero" stroke="#000000" stroke-width="1" stroke-linecap="butt" stroke-linejoin="miter" stroke-miterlimit="10" stroke-dasharray="" stroke-dashoffset="0" font-family="none" font-weight="none" font-size="none" text-anchor="none" style="mix-blend-mode: normal"><g><path d=""/><path d="M92.40625,53.10938c19.14423,5.78779 109.85577,33.21221 129,39c19.14423,5.78779 53.70332,102.29204 63,120c9.29668,17.70796 -74.81914,69.86594 -63,86c11.81914,16.13406 -188.73102,24.73095 -169,28c19.73102,3.26905 -31.28798,-148.27212 -28,-168c3.28798,-19.72788 57.12835,-88.21289 68,-105"/><path d="M73.40625,147.10938l0,42l17,-28l2,-23l5,55l21,-32l38,18l-15,31l-23,-49l79,-15l-41,33l61,25"/><path d="M70.40625,233.10938c0,7.41723 1.78554,17.57108 5,24c1.71747,3.43494 -1.98778,9.01222 1,12"/><path d="M75.40625,262.10938c0,-11.44332 23.07369,-16.22108 26,-25c0.10541,-0.31623 0.14907,-0.70186 0,-1c-1.15507,-2.31014 -6.68546,-3.45697 -9,-5c-1.00163,-0.66776 -7.26369,-6.73631 -8,-6c-0.79332,0.79332 3.57848,9.31391 4,11c1.77729,7.10915 8,23.37343 8,30"/><path d="M116.40625,259.10938c0,8.42364 -10.51294,-19 -8,-19"/><path d="M108.40625,210.10938c0,8.04615 2.20892,11.41784 5,17c0.74297,1.48595 6.28241,4.71759 8,3c0.76326,-0.76326 0,-4.56296 0,-6c0,-12.47678 -6.76128,-10 -17,-10"/><path d="M148.40625,236.10938c0,9.66667 0,19.33333 0,29c0,3 0,9 0,9c0,0 -0.52523,-2.77447 0,-4c1.53582,-3.58358 4.74605,-17.37303 8,-19c2.07407,-1.03704 7.33671,0.33671 8,1c0.69259,0.69259 4.26665,6.73335 5,6c4.35451,-4.35451 -9.23997,-25.23997 -12,-28"/><path d="M181.40625,232.10938c-6.40663,6.40663 -4.34219,28.1711 10,21c2.11815,-1.05908 7.13429,-8.93286 3,-11c-4.45965,-2.22983 -9.9593,0.0407 -14,-4"/><path d="M200.40625,230.10938c0,5.63391 7.38398,4.15193 9,9c1.58189,4.74568 3,12.26479 3,17c0,1.66667 0,5 0,5c0,0 -0.66667,-0.66667 -1,-1c-2.08754,-2.08754 -2.41421,-19.17159 -1,-22c2.4155,-4.83099 6.35691,-7.35691 10,-11"/><path d="M225.40625,203.10938c0,16.05769 5,27.30928 5,42"/><path d="M250.40625,223.10938c-0.68804,0 -6.82855,-4.17145 -9,-2c-2.83982,2.83982 -4.5803,17.29015 4,13c1.69431,-0.84715 2.04693,-3.57039 3,-5c1.46484,-2.19726 4.50946,-4.01893 6,-7c1.6635,-3.327 0,-12.67223 0,-16c0,-0.76946 0.70896,-8.29104 0,-9c-2.18514,-2.18514 -2.78835,0.10582 -5,-1c-4.16438,-2.08219 -9.18336,-8 -14,-8"/><rect x="262.40625" y="45.10938" width="41" height="68"/><ellipse cx="332.40625" cy="237.10938" rx="24" ry="73"/></g></g></svg>